# xmcd
#
# Track frame offsets:
#	150
#	17142
#	40248
#	58585
#	73218
#	92859
#	119836
#	142919
#	159404
#	180671
#	197346
#
# Disc length: 3063 seconds
#
# Revision: 0
# Processed by: cddbd v1.5.2PL0 Copyright (c) Steve Scherf et al.
# Submitted via: dBpowerAMP V4.0
#
DISCID=990bf50b
DTITLE=Dalton Churchill - Two Diverse
DYEAR=1900
DGENRE=Blues
TTITLE0=Walking In The Fire
TTITLE1=Like A Blind Man
TTITLE2=Passing Judgment
TTITLE3=I Don't Have More To Say
TTITLE4=My Love Song
TTITLE5=How Could It Be?
TTITLE6=The Road
TTITLE7=Un Pedazo De Hueso Y Carne
TTITLE8=You Ask Me
TTITLE9=We Belong Together
TTITLE10=Something Still
EXTD=
EXTT0=
EXTT1=
EXTT2=
EXTT3=
EXTT4=
EXTT5=
EXTT6=
EXTT7=
EXTT8=
EXTT9=
EXTT10=
PLAYORDER=
